<svg width="82" height="40" viewBox="0 0 82 40" fill="none" xmlns="http://www.w3.org/2000/svg">
<g id="logoipsum-332" clip-path="url(#clip0_1000_797)">
<path id="Vector" d="M73.3649 19.7099C73.3649 22.6139 71.1239 25.0199 68.0949 25.0199C65.0649 25.0199 62.8669 22.6139 62.8669 19.7099C62.8669 16.8049 65.0659 14.3979 68.0949 14.3979C71.1239 14.3979 73.3649 16.8059 73.3649 19.7099Z" fill="#FFD43D"/>
<path id="Vector_2" d="M48.7641 19.5439C48.7641 22.4899 46.4411 24.6889 43.4941 24.6889C40.5901 24.6889 38.2671 22.4889 38.2671 19.5439C38.2671 16.5969 40.5901 14.4399 43.4951 14.4399C46.4411 14.4399 48.7641 16.5979 48.7641 19.5439Z" fill="#FF0C81"/>
<path id="Vector_3" d="M20.0739 25.0199C23.1029 25.0199 25.3439 22.6139 25.3439 19.7099C25.3439 16.8049 23.1029 14.3979 20.0739 14.3979C17.0439 14.3979 14.8459 16.8049 14.8459 19.7089C14.8459 22.6139 17.0449 25.0199 20.0739 25.0199Z" fill="#11EEFC"/>
<path id="Vector_4" d="M68.095 30.54C61.788 30.54 56.975 25.643 56.975 19.668C56.975 13.734 61.83 8.838 68.095 8.838C74.444 8.838 79.257 13.776 79.257 19.668C79.257 25.643 74.402 30.539 68.095 30.539V30.54ZM68.095 25.02C71.125 25.02 73.365 22.614 73.365 19.71C73.365 16.805 71.125 14.398 68.095 14.398C65.066 14.398 62.867 16.805 62.867 19.709C62.867 22.614 65.066 25.02 68.095 25.02ZM43.08 40C38.267 40 34.574 37.884 32.707 34.066L37.603 31.411C38.516 33.195 40.217 34.606 42.997 34.606C46.483 34.606 48.847 32.158 48.847 28.133V27.759C47.727 29.17 45.736 30.249 42.831 30.249C37.063 30.249 32.458 25.768 32.458 19.668C32.458 13.734 37.271 8.88 43.578 8.88C50.009 8.88 54.74 13.485 54.74 19.668V27.967C54.74 35.27 49.76 40 43.08 40ZM43.495 24.689C46.441 24.689 48.765 22.489 48.765 19.544C48.765 16.597 46.441 14.44 43.495 14.44C40.59 14.44 38.267 16.598 38.267 19.544C38.267 22.49 40.59 24.689 43.495 24.689ZM20.074 30.54C13.767 30.54 8.954 25.643 8.954 19.668C8.954 13.734 13.808 8.838 20.074 8.838C26.422 8.838 31.236 13.776 31.236 19.668C31.236 25.643 26.381 30.539 20.074 30.539V30.54ZM20.074 25.02C23.103 25.02 25.344 22.614 25.344 19.71C25.344 16.805 23.103 14.398 20.074 14.398C17.044 14.398 14.846 16.805 14.846 19.709C14.846 22.614 17.045 25.02 20.074 25.02ZM0 0H5.892V30H0V0ZM82 6.5C82 7.16304 81.7366 7.79893 81.2678 8.26777C80.7989 8.73661 80.163 9 79.5 9C78.837 9 78.2011 8.73661 77.7322 8.26777C77.2634 7.79893 77 7.16304 77 6.5C77 5.83696 77.2634 5.20107 77.7322 4.73223C78.2011 4.26339 78.837 4 79.5 4C80.163 4 80.7989 4.26339 81.2678 4.73223C81.7366 5.20107 82 5.83696 82 6.5Z" fill="#171A26"/>
</g>
<defs>
<clipPath id="clip0_1000_797">
<rect width="82" height="40" fill="white"/>
</clipPath>
</defs>
</svg>
